<svg width="16" height="16" viewBox="0 0 16 16" xmlns="http://www.w3.org/2000/svg"><path d="M12.017.19c1.746 0 3.173 1.449 3.173 3.239v8.523c0 1.79-1.427 3.238-3.173 3.238H3.662c-1.754 0-3.174-1.456-3.174-3.238v-1.729c0-.371.29-.667.654-.667.357 0 .654.296.654.667v1.73c0 1.046.833 1.903 1.866 1.903h8.355c1.025 0 1.865-.85 1.865-1.904V3.43c0-1.054-.84-1.904-1.865-1.904H3.662c-1.033 0-1.866.85-1.866 1.904v1.75a.667.667 0 01-.654.668.662.662 0 01-.654-.668V3.43c0-1.791 1.42-3.24 3.174-3.24h8.355zm-1.888 6.833L8.509 5.37a.673.673 0 010-.948.646.646 0 01.92 0l2.744 2.798a.667.667 0 01.193.47.672.672 0 01-.193.478L9.43 10.967a.64.64 0 01-.461.19.629.629 0 01-.46-.198.642.642 0 01-.194-.47c0-.175.067-.35.193-.47l1.628-1.661H.845A.657.657 0 01.19 7.69c0-.364.298-.667.655-.667h9.284z" fill-rule="evenodd"/></svg>