<svg width="36" height="34" viewBox="0 0 36 34" xmlns="http://www.w3.org/2000/svg"><path d="M28.887 15.492c2.668 0 4.676-1.113 6.158-3.047l-1.979-1.512a5.218 5.218 0 01-4.18 2.068c-2.894 0-4.991-2.358-4.991-5.253 0-2.894 2.063-5.385 5.075-5.385 1.34 0 2.284.315 3.111.827v2.545h2.491V2.023l-.477-.374C32.726.571 30.635 0 28.887 0c-4.273 0-7.749 3.475-7.749 7.748 0 4.268 3.476 7.744 7.749 7.744zm5.169 15.285l-.09-3.569v-8.703h-5.193v2.49h2.57v5.908c0 2.545-1.944 4.347-3.904 4.347-1.959 0-2.983-1.36-2.983-3.904v-8.841h-4.854v2.49h2.23v6.784c0 3.45 1.935 5.829 5.386 5.829 1.984 0 3.495-1.098 4.396-2.797h.04l.354 2.373H36v-2.402h-1.944v-.005zM20.562.364h-4.327L12.47 11.298h-.059L8.664.364H4.051v2.491h2.595L11.11 15.32h2.372v-.005l4.657-12.46h2.422V.365zM0 33.214h2.565v-2.565H0v2.565zm9.91-11.82h-.03l-.163-2.89H5.14v2.27h2.437v10.003H5.14v2.402h11.318v-2.358h-6.301v-6.035c.285-2.186 1.924-4.051 4.16-4.051h.039l-.045 2.235h2.491v-4.51h-1.969c-2.254-.005-3.928 1.216-4.923 2.934z" fill-rule="evenodd"/></svg>